# xmcd
#
# Track frame offsets:
#	150
#	16245
#	32566
#	45326
#	61229
#	76111
#	91785
#	109416
#	125893
#	139495
#	155110
#	171123
#	185747
#	199317
#	215669
#	229522
#	242698
#	255628
#	272090
#	286663
#	304351
#
# Disc length: 4266 seconds
#
# Revision: 0
# Processed by: cddbd v1.5.2PL0 Copyright (c) Steve Scherf et al.
# Submitted via: EZCDAudioConverter 3.1.0.1
#
DISCID=2e10a815
DTITLE=Nu Country Traxx Volume 220 US
DYEAR=2017
DGENRE=country
TTITLE0=Dan and Shay - Road Trippin'
TTITLE1=Zac Brown Band - Roots
TTITLE2=Florida Georgia Line - Smooth
TTITLE3=Sara Evans - Marquee Sign
TTITLE4=Darius Rucker - For The First Time
TTITLE5=Dierks Bentley - What The Hell Did I Say
TTITLE6=Chase Rice - Three Chords and The Truth
TTITLE7=Joe Nichols - Never Gets Old
TTITLE8=Chris Stapleton - Broken Halos
TTITLE9=Levon - Ms. Marianne
TTITLE10=Danielle Bradbery - Sway
TTITLE11=Brandon Lay - Speakers, Bleachers and Preachers
TTITLE12=Waterloo Revival - What Guy Wouldn't
TTITLE13=Russell Dickerson - Yours
TTITLE14=Chad Brownlee - Out Of The Blue
TTITLE15=Dave McElroy - Without You
TTITLE16=Colt Ford ft. Charles and Josh Kelley - Young Americans
TTITLE17=Clark Hill - Perfect To Me
TTITLE18=Jagertown - Small Town Superstars
TTITLE19=Tim Elliott - Start Pourin' Whiskey On It
TTITLE20=Tim McDonald - Dad
EXTD=
EXTT0=
EXTT1=
EXTT2=
EXTT3=
EXTT4=
EXTT5=
EXTT6=
EXTT7=
EXTT8=
EXTT9=
EXTT10=
EXTT11=
EXTT12=
EXTT13=
EXTT14=
EXTT15=
EXTT16=
EXTT17=
EXTT18=
EXTT19=
EXTT20=
PLAYORDER=
